Patient4_TMGait_0pt2_01_right_02_EMG.mot
version=1
nRows=16
nColumns=33
inDegrees=no
endheader
time	1LAddLong	2LGlutMax	3LGlutMed	4LIliopsoas	5LSemiMemb	6LBicFemLong	7LRecFem	8LVastMed	9LVastLat	10LGasMed	11LTibAnt	12lTibPost	13LPeroneusLong	14LSol	15LExtDigLong	16LFlexDigLong	17RAddLong	18RGlutMax	19RGlutMed	20RIliopsoas	21RSemiMemb	22RBicFemLong	23RRecFem	24RVastMed	25RVastLat	26RGasMed	27RTibAnt	28RTibPost	29RPeroneusLong	30RSol	31RExtDigLong	32RFlexDigLong
3.06	-0.000153	-0.040894	-0.036316	0.010071	-0.013733	-0.012512	0.023956	0.001221	-0.023499	0.007477	-0.004578	-0.007172	0.007324	0.1648	0.009918	0.000763	0.051727	-0.27435	0.002899	-0.046387	0.062866	-0.10117	-0.10468	-0.69138	-0.57907	-0.007477	-0.045776	-0.019684	-0.015106	-0.036621	0	-0.002289
3.061	0.005188	-0.020294	-0.021362	-0.002441	0.003357	0.002747	0.027008	0.003662	-0.018158	0.005493	-0.004883	0.002899	0.007172	0.15076	0.007629	0.002594	0.015259	-0.27679	0.087585	-0.061035	-0.33432	-0.079498	-0.059509	-0.29144	-0.17777	-0.003815	-0.074158	-0.044098	-0.023193	0.033722	0.003815	-0.003815
3.062	-0.004578	0.020294	-0.025635	0.006714	0.013733	0.077972	0.025482	0.007935	-0.012207	0.006561	-0.000153	-0.001373	-0.012665	0.10086	-0.000458	-0.005951	-0.047455	-0.27161	-0.10117	-0.051422	-0.31555	-0.057983	-0.032196	0.001373	-0.039215	0.036011	0.070648	-0.021667	-0.006256	0.04303	0.001068	-0.009155
3.063	0.010986	0.008545	-0.029449	0.01297	0.012054	0.15823	0.001526	0.011597	-0.013275	0.013123	0.00061	0.003357	-0.032806	0.12283	0.008392	-0.001221	-0.053711	-0.15823	-0.18906	-0.045013	0.17685	-0.03067	-0.016937	0.12817	-0.010223	0.034027	0.079193	0.082703	0.008392	0.00412	-0.000763	-0.013275
3.064	0.009308	0.04303	-0.027618	0.002136	0.000305	0.094452	-0.001984	0.005951	-0.00351	0.00885	-0.001678	0.006104	-0.021515	0.11795	0.007782	-0.005188	-0.027466	-0.17624	-0.19348	0.026398	0.30472	-0.093689	-0.074768	0.20783	-0.001984	0.014801	0.21973	0.019836	0.04715	-0.004883	-0.001068	-0.014496
3.065	0.007019	0.041962	-0.025024	0.002289	-0.007477	0.02182	0.01297	-0.005188	-0.00946	0.00824	0.005188	0.001373	-0.023041	0.12543	-0.000458	0.003357	0.004578	-0.19592	-0.66071	0.041351	0.089874	-0.13657	-0.039215	0.089874	-0.022583	0.014954	0.085449	-0.001678	0.093536	-0.10544	-0.000305	-0.003204
3.066	0.005035	0.059052	-0.02121	0.036621	0.013428	-0.030365	0.022888	0.006409	-0.019684	0.003815	0.005341	0.014038	-0.02182	0.11978	0.001984	0.003815	0.030518	-0.15259	-0.71259	0.088043	0.11139	-0.10971	-0.031891	-0.034027	-0.050659	0.014954	-0.057526	-0.010223	0.11978	-0.10422	0.002136	-0.005951
3.067	0.006409	0.082703	-0.01358	0.003967	0.016174	-0.023346	0.028839	0.006561	-0.02594	0.00061	0.014343	0.004578	-0.016632	0.10681	0.004578	0.002136	0.005035	-0.17227	-0.52155	-0.013733	0.1001	-0.039368	-0.007477	0.016174	-0.019379	0.006714	-0.17624	-0.002747	0.11841	-0.010681	0.001678	-0.003967
3.068	0.00412	0.067139	-0.003052	0.008698	0.006866	0.021973	0.011902	0.008545	-0.037842	0.01236	0.074463	0.010986	-0.018768	0.086517	0.002747	-0.000763	-0.003357	-0.21698	-0.25833	-0.001526	0.020599	-0.023346	0.13534	0.017395	-0.028381	0.007324	-0.17258	-0.001831	0.027313	0.072632	0.003815	-0.009918
3.069	-0.000763	0.10376	0.016022	-0.007935	-0.00885	0.038605	0.007477	0.004272	-0.038757	0.00351	0.027618	0.00885	-0.011902	0.077515	-0.003052	0.001221	-0.004883	-0.26291	0.29175	0.043335	0.055542	0.044403	0.2507	0.034332	-0.040131	-0.010529	-0.16388	-0.005035	-0.043793	0.25818	-0.001678	-0.00885
3.07	0.007629	0.092773	0.027466	-0.00824	0.005341	-0.030518	0.014954	0.010223	-0.029755	0.00946	0.019836	0.010986	-0.015259	0.050812	0.003662	0.001221	0.012512	-0.27405	0.24109	0.081329	0.016174	0.082245	0.32822	-0.017548	-0.045471	-0.004578	-0.14847	-0.005493	-0.056458	0.19821	-0.000153	-0.001831
3.071	-0.001068	0.082245	0.018463	0.011139	0.009003	-0.055084	0.006409	0.003815	-0.032043	0.004425	0.013733	0.015106	0.003357	0.06485	0.007935	-0.007019	0.021515	-0.3804	-0.11551	0.10971	-0.11704	0.21057	0.32501	-0.058441	0.20599	0.001526	-0.089264	-0.003815	-0.018616	-0.03891	0.000916	-0.010223
3.072	0.012054	0.088959	0.015411	0.016479	0.020905	-0.03067	0.021973	-0.002441	-0.041199	0.000305	-0.005341	0.005798	0.006104	0.050354	0.005493	0.002289	0.01709	-0.36606	0.30151	0.032196	-0.24735	0.23789	0.20615	-0.13809	0.40863	0.002899	-0.004425	-0.004578	-0.010529	-0.13199	0.000153	-0.006866
3.073	0.002136	0.11627	-0.009918	0.014038	0.019226	-0.013733	0.021667	0.006409	-0.029602	-0.006104	0.000763	0.011597	-0.001831	0.031281	0.006104	-0.002747	-0.007324	-0.27222	0.16403	-0.032196	-0.065613	0.1947	-0.020447	-0.10376	0.33386	0.001068	0.048218	-0.006104	0.02655	-0.14236	-0.000458	-0.002747
3.074	-0.003815	0.10941	-0.044861	0.008087	0.023651	0.000916	0.023346	0.000916	-0.040894	0.006714	0.006561	0.016479	0.00061	0.018005	-0.001373	0.005493	0.033417	-0.35568	-0.26962	-0.028534	-0.006104	0.15884	-0.22537	-0.18173	0.17685	0.012665	0.051422	-0.009003	0.029449	-0.19211	-0.005493	-0.002136
3.075	0.000763	0.10696	-0.079193	0.009155	0.014038	-0.013275	0.008087	0.006256	-0.037384	0.00885	0.002747	0.016937	-0.009766	0.030518	0.001678	0.002289	0.018158	-0.31998	-0.23941	-0.00351	0.11459	0.020447	-0.34714	-0.085602	0.097961	-0.000153	0.14618	-0.01236	-0.00412	-0.12512	-0.000916	-0.008392
